<svg viewBox="0 0 512 512" xmlns="http://www.w3.org/2000/svg"><path d="m492 352c11.046875 0 20-8.953125 20-20v-100c0-11.046875-8.953125-20-20-20h-29.691406l46.921875-80.972656c1.765625-3.046875 2.695312-6.507813 2.695312-10.027344v-71c0-7.84375-4.585937-14.960938-11.726562-18.207031l-26.183594-11.902344c-29.035156-13.199219-59.929687-19.890625-91.828125-19.890625h-252.453125c-31.894531 0-62.789063 6.691406-91.828125 19.890625l-26.179688 11.902344c-7.140624 3.246093-11.726562 10.363281-11.726562 18.207031v71c0 3.519531.929688 6.980469 2.695312 10.027344l46.917969 80.972656h-29.613281c-11.046875 0-20 8.953125-20 20v200c0 44.113281 35.886719 80 80 80h352c44.113281 0 80-35.886719 80-80 0-11.046875-8.953125-20-20-20s-20 8.953125-20 20c0 22.054688-17.945312 40-40 40h-352c-22.054688 0-40-17.945312-40-40v-180h146v51c0 7.132812 3.796875 13.722656 9.964844 17.300781l50 29c3.105468 1.800781 6.570312 2.699219 10.035156 2.699219s6.933594-.898438 10.035156-2.699219l50-29c6.167969-3.578125 9.964844-10.167969 9.964844-17.300781v-51h146v80c0 11.046875 8.953125 20 20 20zm-34.535156-295.695312 14.460937 6.574218v28.121094h-145.925781v-51h56.1875c26.148438 0 51.472656 5.484375 75.277344 16.304688zm-231.464844-16.304688h60v79.675781l-30 18-30-18zm-171.539062 16.304688c23.800781-10.820313 49.128906-16.304688 75.273437-16.304688h56.265625v51h-146v-28.121094zm-5.550782 74.695312h137.089844c0 7.023438 3.6875 13.535156 9.710938 17.148438l50 30c3.167968 1.902343 6.726562 2.851562 10.289062 2.851562s7.121094-.949219 10.289062-2.851562l50-30c6.023438-3.613282 9.710938-10.125 9.710938-17.148438h137.015625l-46.9375 81h-320.234375zm237.089844 160.480469-30 17.398437-30-17.398437v-39.480469h60zm0 0"/></svg>