<?xml version="1.0" encoding="iso-8859-1"?>
<!-- Generator: Adobe Illustrator 19.0.0, SVG Export Plug-In . SVG Version: 6.00 Build 0)  -->
<svg version="1.1" id="Capa_1" xmlns="http://www.w3.org/2000/svg" xmlns:xlink="http://www.w3.org/1999/xlink" x="0px" y="0px"
	 viewBox="0 0 512 512" style="enable-background:new 0 0 512 512;" xml:space="preserve">
<g>
	<g>
		<path d="M450.81,259.374l-11.453-58.263c-3.136-16.354-8.546-28.839-16.542-38.171c-10.307-12.03-24.766-18.389-41.815-18.389h-67
			V64.45c0-11.046-8.954-20-20-20H20c-11.046,0-20,8.954-20,20v283.1c0,43.585,35.041,79.116,78.427,79.96
			c8.245,23.299,30.486,40.04,56.573,40.04c26.073,0,48.303-16.722,56.56-40h123.88c8.256,23.278,30.487,40,56.56,40
			s48.303-16.722,56.56-40H492c11.046,0,20-8.954,20-20v-72C512,298.311,485.766,267.083,450.81,259.374z M314,184.55h67
			c6.104,0,14.463,0,19.081,24.134c0.006,0.033,0.013,0.066,0.019,0.1l9.783,49.766H314V184.55z M135,427.55
			c-11.028,0-20-8.972-20-20s8.972-20,20-20s20,8.972,20,20S146.028,427.55,135,427.55z M372,427.55c-11.028,0-20-8.972-20-20
			s8.972-20,20-20s20,8.972,20,20S383.028,427.55,372,427.55z M472,387.55h-43.44c-8.256-23.278-30.487-40-56.56-40
			s-48.303,16.722-56.56,40H191.56c-8.256-23.278-30.487-40-56.56-40c-26.058,0-48.279,16.703-56.546,39.961
			C57.112,386.695,40,369.088,40,347.55V84.45h234v174.1H100c-11.046,0-20,8.954-20,20c0,11.046,8.954,20,20,20h333
			c1.854,0,3.641-0.272,5.345-0.744C457.258,299.97,472,316.067,472,335.55V387.55z"/>
	</g>
</g>
<g>
</g>
<g>
</g>
<g>
</g>
<g>
</g>
<g>
</g>
<g>
</g>
<g>
</g>
<g>
</g>
<g>
</g>
<g>
</g>
<g>
</g>
<g>
</g>
<g>
</g>
<g>
</g>
<g>
</g>
</svg>
