<svg height="512pt" viewBox="0 0 512 512.00019" width="512pt" xmlns="http://www.w3.org/2000/svg"><path d="m256.390625 512c-23.121094 0-46.382813-3.164062-69.261719-9.558594-65.828125-18.394531-120.550781-61.324218-154.089844-120.878906-33.539062-59.554688-41.878906-128.605469-23.480468-194.433594 18.394531-65.828125 61.324218-120.550781 120.878906-154.089844 59.558594-33.539062 128.609375-41.878906 194.433594-23.480468 65.828125 18.394531 120.550781 61.324218 154.089844 120.878906 21.433593 38.0625 32.820312 81.117188 32.925781 124.515625.015625 7.304687-.519531 14.332031-.996094 20.535156-.84375 11.007813-10.460937 19.25-21.460937 18.40625-11.007813-.84375-19.25-10.453125-18.40625-21.460937.417968-5.464844.894531-11.65625.878906-17.382813-.089844-36.574219-9.695313-72.878906-27.777344-104.992187-28.300781-50.25-74.472656-86.472656-130.015625-101.992188-55.542969-15.523437-113.804687-8.488281-164.050781 19.8125-3.640625 2.050782-7.195313 4.1875-10.667969 6.414063-16.644531 31.101562-25.425781 66.214843-25.425781 101.746093 0 119.050782 96.851562 215.902344 215.902344 215.902344 39.449218 0 78.035156-10.730468 111.59375-31.035156l9.410156-5.84375c7.753906-4.816406 17.789062-3.765625 24.378906 2.546875 6.589844 6.320313 8.066406 16.296875 3.582031 24.25-22.863281 40.566406-56.5 74.140625-97.269531 97.101563-38.859375 21.882812-81.761719 33.039062-125.171875 33.039062zm-179.074219-377.152344c-44.371094 65.664063-50.898437 153.472656-9.441406 227.09375 58.417969 103.734375 190.335938 140.601563 294.066406 82.179688 10.226563-5.757813 19.921875-12.304688 29.003906-19.566406-19.878906 4.871093-40.378906 7.367187-61.078124 7.367187-68.347657 0-132.605469-26.617187-180.9375-74.945313-48.332032-48.332031-74.949219-112.589843-74.949219-180.941406 0-13.828125 1.125-27.609375 3.335937-41.1875zm299.769532 39.582032c7.808593-7.804688 7.808593-20.464844.003906-28.269532-7.808594-7.808594-20.464844-7.808594-28.273438 0-3.847656 3.847656-10.109375 3.847656-13.960937 0-3.847657-3.851562-3.847657-10.113281 0-13.960937 7.808593-7.808594 7.808593-20.464844 0-28.273438-7.804688-7.804687-20.464844-7.804687-28.269531.003907-19.4375 19.4375-19.4375 51.0625 0 70.5 9.71875 9.71875 22.484374 14.578124 35.25 14.578124 12.769531 0 25.535156-4.859374 35.25-14.578124zm-113.945313 56.058593c7.804687-7.808593 7.804687-20.464843 0-28.273437-7.808594-7.804688-20.464844-7.804688-28.273437 0-3.742188 3.746094-8.722657 5.808594-14.015626 5.808594-5.296874 0-10.273437-2.0625-14.019531-5.808594-3.742187-3.742188-5.804687-8.722656-5.804687-14.015625 0-5.296875 2.0625-10.273438 5.804687-14.019531 7.808594-7.808594 7.808594-20.464844 0-28.269532-7.808593-7.808594-20.464843-7.808594-28.269531 0-11.296875 11.292969-17.519531 26.3125-17.519531 42.289063 0 15.976562 6.222656 30.992187 17.515625 42.289062 11.296875 11.296875 26.316406 17.519531 42.292968 17.519531 15.972657-.003906 30.992188-6.222656 42.289063-17.519531zm146.933594 98.042969c7.808593-7.804688 7.808593-20.464844 0-28.269531-7.808594-7.808594-20.464844-7.808594-28.273438 0-3.617187 3.621093-9.507812 3.621093-13.128906 0-3.621094-3.621094-3.621094-9.511719 0-13.132813 7.808594-7.808594 7.808594-20.464844 0-28.269531-7.808594-7.808594-20.464844-7.808594-28.273437 0-19.207032 19.207031-19.207032 50.464844 0 69.675781 9.605468 9.601563 22.222656 14.40625 34.839843 14.40625 12.613281 0 25.230469-4.804687 34.835938-14.410156zm0 0"/></svg>