<?xml version="1.0" encoding="iso-8859-1"?>
<!-- Generator: Adobe Illustrator 19.0.0, SVG Export Plug-In . SVG Version: 6.00 Build 0)  -->
<svg version="1.1" id="Capa_1" xmlns="http://www.w3.org/2000/svg" xmlns:xlink="http://www.w3.org/1999/xlink" x="0px" y="0px"
	 viewBox="0 0 512 512" style="enable-background:new 0 0 512 512;" xml:space="preserve">
<g>
	<g>
		<path d="M510.395,152.744L465.95,48.599C453.351,19.076,424.469,0,392.37,0H119.63C87.531,0,58.65,19.076,46.05,48.599
			L1.605,152.744C0.546,155.226,0,157.896,0,160.594v26c0,27.34,16.469,50.893,40,61.298V432c0,44.112,35.888,80,80,80h272
			c44.112,0,80-35.888,80-80c0-11.046-8.954-20-20-20c-11.046,0-20,8.954-20,20c0,22.056-17.944,40-40,40H120
			c-22.056,0-40-17.944-40-40V252.318c13.101-2.587,24.839-9.002,34-18.032c1.892,1.865,3.899,3.612,6,5.243V369
			c0,11.046,8.954,20,20,20h232c11.046,0,20-8.954,20-20V239.529c2.101-1.631,4.108-3.378,6-5.243
			c9.161,9.03,20.899,15.445,34,18.032V332c0,11.046,8.954,20,20,20c11.046,0,20-8.954,20-20v-84.107
			c23.531-10.406,40-33.958,40-61.298v-26C512,157.896,511.454,155.226,510.395,152.744z M94,186.594c0,14.888-12.112,27-27,27
			s-27-12.112-27-27V180h54V186.594z M134,186.594V180h54v6.594c0,14.888-12.112,27-27,27S134,201.482,134,186.594z M352,349H160
			v-95.431c0.334,0.005,0.665,0.025,1,0.025c18.445,0,35.173-7.494,47.3-19.595c12.284,12.106,29.131,19.595,47.7,19.595
			c18.569,0,35.416-7.489,47.7-19.595c12.128,12.101,28.855,19.595,47.3,19.595c0.335,0,0.666-0.021,1-0.025V349z M228,185.594V180
			h56v5.594c0,15.439-12.561,28-28,28C240.561,213.594,228,201.033,228,185.594z M378,186.594c0,14.888-12.112,27-27,27
			s-27-12.112-27-27V180h54V186.594z M50.534,140L82.84,64.299C89.14,49.538,103.581,40,119.63,40h272.74
			c16.049,0,30.49,9.538,36.79,24.299L461.466,140H50.534z M472,186.594c0,14.888-12.112,27-27,27s-27-12.112-27-27V180h54V186.594z
			"/>
	</g>
</g>
<g>
</g>
<g>
</g>
<g>
</g>
<g>
</g>
<g>
</g>
<g>
</g>
<g>
</g>
<g>
</g>
<g>
</g>
<g>
</g>
<g>
</g>
<g>
</g>
<g>
</g>
<g>
</g>
<g>
</g>
</svg>
