<?xml version="1.0" standalone="no"?><!-- Generator: Gravit.io --><svg xmlns="http://www.w3.org/2000/svg" xmlns:xlink="http://www.w3.org/1999/xlink" style="isolation:isolate" viewBox="509 349.501 52 42.999" width="52" height="42.999"><defs><clipPath id="_clipPath_PUvgxDAJVQFLtA68C9M1ub1TsAPA7Afq"><rect x="509" y="349.501" width="52" height="42.999"/></clipPath></defs><mask id="_mask_ZlnIFeljG1QFlOVDhDD03m2oTFyYwMIS"><rect x="519.272" y="357.272" width="25.456" height="25.456" transform="matrix(0.707,-0.707,0.707,0.707,-105.81,484.551)" fill="white" stroke="none"/></mask><mask id="_mask_7BEDfoThCSAJEZR1l05mFwswtagOqnnG" x="-200%" y="-200%" width="400%" height="400%"><rect x="-200%" y="-200%" width="400%" height="400%" style="fill:white;"/><line x1="516" y1="360" x2="516" y2="381" vector-effect="non-scaling-stroke" stroke-width="1" stroke="none" stroke-linejoin="miter" stroke-linecap="square" stroke-miterlimit="3" fill="black"/></mask><mask id="_mask_fNS4c7pbN3vVCn044yD9Js4roMxCwvl4" x="-200%" y="-200%" width="400%" height="400%"><rect x="-200%" y="-200%" width="400%" height="400%" style="fill:white;"/><line x1="518" y1="359.5" x2="518" y2="380.5" vector-effect="non-scaling-stroke" stroke-width="1" stroke="none" stroke-linejoin="miter" stroke-linecap="square" stroke-miterlimit="3" fill="black"/></mask><mask id="_mask_r6R7dducGV98V944GojxtU62Msbi8qtt" x="-200%" y="-200%" width="400%" height="400%"><rect x="-200%" y="-200%" width="400%" height="400%" style="fill:white;"/><line x1="522" y1="359.5" x2="522" y2="380.5" vector-effect="non-scaling-stroke" stroke-width="1" stroke="none" stroke-linejoin="miter" stroke-linecap="square" stroke-miterlimit="3" fill="black"/></mask><mask id="_mask_h2Gi6naJjZaGib9YWTknzUKzax3PPxlu" x="-200%" y="-200%" width="400%" height="400%"><rect x="-200%" y="-200%" width="400%" height="400%" style="fill:white;"/><line x1="524" y1="350" x2="524" y2="389" vector-effect="non-scaling-stroke" stroke-width="1" stroke="none" stroke-linejoin="miter" stroke-linecap="square" stroke-miterlimit="3" fill="black"/></mask><mask id="_mask_uUYqytR3tAO8d0MQiNIn4uqaqibHWXL2" x="-200%" y="-200%" width="400%" height="400%"><rect x="-200%" y="-200%" width="400%" height="400%" style="fill:white;"/><line x1="528" y1="351" x2="528" y2="390" vector-effect="non-scaling-stroke" stroke-width="1" stroke="none" stroke-linejoin="miter" stroke-linecap="square" stroke-miterlimit="3" fill="black"/></mask><mask id="_mask_mXKZ5TLL2Tysura5Euxc3IUsI3HZ2ojm" x="-200%" y="-200%" width="400%" height="400%"><rect x="-200%" y="-200%" width="400%" height="400%" style="fill:white;"/><line x1="530" y1="350.5" x2="530" y2="389.5" vector-effect="non-scaling-stroke" stroke-width="1" stroke="none" stroke-linejoin="miter" stroke-linecap="square" stroke-miterlimit="3" fill="black"/></mask><mask id="_mask_QmljfjFbB7zMUdQjeX8bJyaIe7mQMHVb" x="-200%" y="-200%" width="400%" height="400%"><rect x="-200%" y="-200%" width="400%" height="400%" style="fill:white;"/><line x1="532" y1="351" x2="532" y2="390" vector-effect="non-scaling-stroke" stroke-width="1" stroke="none" stroke-linejoin="miter" stroke-linecap="square" stroke-miterlimit="3" fill="black"/></mask><mask id="_mask_jpJwcoVmaybMJQLqWQGQXQIV5lGQ6qMz" x="-200%" y="-200%" width="400%" height="400%"><rect x="-200%" y="-200%" width="400%" height="400%" style="fill:white;"/><line x1="534" y1="350.5" x2="534" y2="389.5" vector-effect="non-scaling-stroke" stroke-width="1" stroke="none" stroke-linejoin="miter" stroke-linecap="square" stroke-miterlimit="3" fill="black"/></mask><mask id="_mask_30mZG30tPBYSkrxvFUW1GqRUrOeehgu8" x="-200%" y="-200%" width="400%" height="400%"><rect x="-200%" y="-200%" width="400%" height="400%" style="fill:white;"/><line x1="536" y1="351" x2="536" y2="390" vector-effect="non-scaling-stroke" stroke-width="1" stroke="none" stroke-linejoin="miter" stroke-linecap="square" stroke-miterlimit="3" fill="black"/></mask><mask id="_mask_8QqEU6EhtAk1BDUxKvJyRAFB0JMmGnQS" x="-200%" y="-200%" width="400%" height="400%"><rect x="-200%" y="-200%" width="400%" height="400%" style="fill:white;"/><line x1="538" y1="352" x2="538" y2="391" vector-effect="non-scaling-stroke" stroke-width="1" stroke="none" stroke-linejoin="miter" stroke-linecap="square" stroke-miterlimit="3" fill="black"/></mask><mask id="_mask_f7QzJURbWYWJzFAraRZGlrdC4mDYBcWC" x="-200%" y="-200%" width="400%" height="400%"><rect x="-200%" y="-200%" width="400%" height="400%" style="fill:white;"/><line x1="540" y1="353" x2="540" y2="392" vector-effect="non-scaling-stroke" stroke-width="1" stroke="none" stroke-linejoin="miter" stroke-linecap="square" stroke-miterlimit="3" fill="black"/></mask><mask id="_mask_XtuQylovDTmsmHjaGTKy8TuqBMS3aOo5" x="-200%" y="-200%" width="400%" height="400%"><rect x="-200%" y="-200%" width="400%" height="400%" style="fill:white;"/><line x1="542" y1="352" x2="542" y2="391" vector-effect="non-scaling-stroke" stroke-width="1" stroke="none" stroke-linejoin="miter" stroke-linecap="square" stroke-miterlimit="3" fill="black"/></mask><mask id="_mask_cqD24XjuuCiWltTW1KlWa05MMGIBvguy" x="-200%" y="-200%" width="400%" height="400%"><rect x="-200%" y="-200%" width="400%" height="400%" style="fill:white;"/><line x1="544" y1="351" x2="544" y2="390" vector-effect="non-scaling-stroke" stroke-width="1" stroke="none" stroke-linejoin="miter" stroke-linecap="square" stroke-miterlimit="3" fill="black"/></mask><mask id="_mask_JnQewgzfZXRBMTP9P5MrsdgUOZj5X2V0" x="-200%" y="-200%" width="400%" height="400%"><rect x="-200%" y="-200%" width="400%" height="400%" style="fill:white;"/><line x1="546" y1="350" x2="546" y2="389" vector-effect="non-scaling-stroke" stroke-width="1" stroke="none" stroke-linejoin="miter" stroke-linecap="square" stroke-miterlimit="3" fill="black"/></mask><mask id="_mask_7X9POFCKk4JUgUJefoTXFnESg7XTqwSl" x="-200%" y="-200%" width="400%" height="400%"><rect x="-200%" y="-200%" width="400%" height="400%" style="fill:white;"/><line x1="548" y1="350" x2="548" y2="389" vector-effect="non-scaling-stroke" stroke-width="1" stroke="none" stroke-linejoin="miter" stroke-linecap="square" stroke-miterlimit="3" fill="black"/></mask><mask id="_mask_3cPlgptZJ4OiwifWz6XQJv8dru90rwpj" x="-200%" y="-200%" width="400%" height="400%"><rect x="-200%" y="-200%" width="400%" height="400%" style="fill:white;"/><line x1="526" y1="355" x2="526" y2="384" vector-effect="non-scaling-stroke" stroke-width="1" stroke="none" stroke-linejoin="miter" stroke-linecap="square" stroke-miterlimit="3" fill="black"/></mask><mask id="_mask_yU3TQ6xP6AHqEsejF5fCWFcMVrcuBr7Q" x="-200%" y="-200%" width="400%" height="400%"><rect x="-200%" y="-200%" width="400%" height="400%" style="fill:white;"/><line x1="520" y1="359.5" x2="520" y2="380.5" vector-effect="non-scaling-stroke" stroke-width="1" stroke="none" stroke-linejoin="miter" stroke-linecap="square" stroke-miterlimit="3" fill="black"/></mask><g clip-path="url(#_clipPath_PUvgxDAJVQFLtA68C9M1ub1TsAPA7Afq)" mask="url(#_mask_yU3TQ6xP6AHqEsejF5fCWFcMVrcuBr7Q)"><rect x="509" y="370" width="49" height="6" transform="matrix(1,0,0,1,0,0)" fill="rgb(138,113,99)"/><rect x="509" y="364" width="49" height="6" transform="matrix(1,0,0,1,0,0)" fill="rgb(164,135,118)"/><rect x="511.5" y="358" width="49" height="6" transform="matrix(1,0,0,1,0,0)" fill="rgb(187,154,135)"/><rect x="512" y="352" width="49" height="6" transform="matrix(1,0,0,1,0,0)" fill="rgb(213,183,166)"/><rect x="509" y="376" width="49" height="6" transform="matrix(1,0,0,1,0,0)" fill="rgb(117,96,85)"/><rect x="511" y="382" width="49" height="6" transform="matrix(1,0,0,1,0,0)" fill="rgb(89,74,66)"/></g></svg>