<?xml version="1.0" standalone="no"?><!-- Generator: Gravit.io --><svg xmlns="http://www.w3.org/2000/svg" xmlns:xlink="http://www.w3.org/1999/xlink" style="isolation:isolate" viewBox="3367.221 4189.146 521.368 128.858" width="521.368" height="128.858"><defs><clipPath id="_clipPath_GLCYROw7uS57y2f2arqP9qxHlH2yClmD"><rect x="3367.221" y="4189.146" width="521.368" height="128.858"/></clipPath></defs><g clip-path="url(#_clipPath_GLCYROw7uS57y2f2arqP9qxHlH2yClmD)"><g><path d=" M 3493.748 4274.822 L 3496.291 4282.065 C 3491.278 4283.97 3486.026 4284.459 3480.534 4283.53 C 3475.042 4282.602 3470.165 4280.266 3465.907 4276.527 C 3459.762 4271.13 3456.417 4264.236 3455.875 4255.843 C 3455.33 4247.451 3457.757 4240.182 3463.154 4234.037 C 3468.673 4227.753 3475.598 4224.374 3483.93 4223.9 C 3492.261 4223.425 3499.499 4225.887 3505.644 4231.284 C 3509.553 4234.718 3512.377 4238.932 3514.117 4243.921 C 3515.856 4248.912 3516.349 4253.736 3515.598 4258.393 L 3463.751 4258.492 C 3464.72 4263.303 3467.125 4267.393 3470.966 4270.766 C 3474.177 4273.586 3477.797 4275.345 3481.826 4276.038 C 3485.855 4276.733 3489.829 4276.327 3493.748 4274.822 Z  M 3463.464 4251.005 L 3507.995 4250.787 C 3507.245 4245.304 3504.775 4240.724 3500.586 4237.044 C 3495.837 4232.873 3490.416 4230.987 3484.318 4231.382 C 3478.22 4231.777 3473.086 4234.349 3468.916 4239.096 C 3465.909 4242.518 3464.092 4246.488 3463.464 4251.005 Z " fill="rgb(0,0,0)"/><path d=" M 3670.383 4274.822 L 3672.926 4282.065 C 3667.913 4283.97 3662.661 4284.459 3657.169 4283.53 C 3651.677 4282.602 3646.8 4280.266 3642.542 4276.527 C 3636.397 4271.13 3633.052 4264.236 3632.51 4255.843 C 3631.965 4247.451 3634.392 4240.182 3639.789 4234.037 C 3645.308 4227.753 3652.233 4224.374 3660.565 4223.9 C 3668.896 4223.425 3676.134 4225.887 3682.279 4231.284 C 3686.188 4234.718 3689.012 4238.932 3690.752 4243.921 C 3692.491 4248.912 3692.984 4253.736 3692.233 4258.393 L 3640.386 4258.492 C 3641.355 4263.303 3643.76 4267.393 3647.601 4270.766 C 3650.812 4273.586 3654.432 4275.345 3658.461 4276.038 C 3662.49 4276.733 3666.464 4276.327 3670.383 4274.822 Z  M 3640.099 4251.005 L 3684.63 4250.787 C 3683.88 4245.304 3681.41 4240.724 3677.221 4237.044 C 3672.472 4232.873 3667.051 4230.987 3660.953 4231.382 C 3654.855 4231.777 3649.721 4234.349 3645.551 4239.096 C 3642.544 4242.518 3640.727 4246.488 3640.099 4251.005 Z " fill="rgb(0,0,0)"/><path d=" M 3563.262 4269.497 C 3565.12 4273.215 3568.186 4275.073 3572.462 4275.073 C 3575.341 4275.073 3577.759 4274.097 3579.71 4272.146 C 3581.662 4270.195 3582.637 4267.779 3582.637 4264.898 C 3582.637 4262.576 3581.962 4260.507 3580.616 4258.695 C 3579.268 4256.883 3577.571 4255.698 3575.528 4255.141 L 3568.837 4253.19 C 3565.492 4252.168 3562.795 4250.333 3560.752 4247.684 C 3558.707 4245.036 3557.686 4242.039 3557.686 4238.694 C 3557.686 4234.512 3559.15 4230.958 3562.077 4228.031 C 3565.004 4225.104 3568.558 4223.64 3572.74 4223.64 C 3575.713 4223.64 3578.477 4224.476 3581.033 4226.149 C 3583.588 4227.822 3585.424 4230.052 3586.539 4232.84 L 3579.57 4235.767 C 3578.455 4232.794 3576.177 4231.307 3572.74 4231.307 C 3570.601 4231.307 3568.837 4232.052 3567.443 4233.537 C 3566.049 4235.025 3565.352 4236.743 3565.352 4238.695 C 3565.352 4242.412 3567.164 4244.782 3570.788 4245.803 L 3577.479 4247.754 C 3581.288 4248.778 3584.379 4250.869 3586.748 4254.027 C 3589.117 4257.187 3590.302 4260.811 3590.302 4264.899 C 3590.302 4268.244 3589.511 4271.265 3587.933 4273.959 C 3586.352 4276.655 3584.215 4278.792 3581.521 4280.371 C 3578.825 4281.95 3575.806 4282.74 3572.461 4282.74 C 3569.116 4282.74 3566.049 4281.88 3563.261 4280.161 C 3560.473 4278.442 3558.243 4276.097 3556.57 4273.122 L 3563.262 4269.497 Z " fill="rgb(0,0,0)"/><path d=" M 3740.282 4308.107 L 3746.275 4303.646 C 3749.248 4308.107 3753.569 4310.337 3759.238 4310.337 C 3763.883 4310.337 3767.623 4308.804 3770.458 4305.737 C 3773.292 4302.671 3774.71 4299.046 3774.71 4294.865 L 3774.71 4277.442 C 3770.434 4281.253 3765.417 4283.157 3759.656 4283.157 C 3753.244 4283.157 3747.854 4280.975 3743.487 4276.606 C 3739.118 4272.239 3736.935 4266.849 3736.935 4260.437 L 3736.935 4224.614 L 3744.602 4224.614 L 3744.602 4260.437 C 3744.602 4264.619 3746.112 4268.173 3749.132 4271.1 C 3752.15 4274.027 3755.659 4275.491 3759.656 4275.491 C 3764.023 4275.491 3767.623 4273.981 3770.458 4270.961 C 3773.292 4267.942 3774.71 4264.434 3774.71 4260.437 L 3774.71 4224.614 L 3782.376 4224.614 L 3782.376 4294.866 C 3782.376 4301.278 3780.122 4306.736 3775.616 4311.244 C 3771.107 4315.75 3765.649 4318.004 3759.238 4318.004 C 3751.245 4318.003 3744.927 4314.704 3740.282 4308.107 Z " fill="rgb(0,0,0)"/><path d=" M 3880.226 4273.957 C 3874.184 4280.184 3866.936 4283.296 3858.481 4283.296 C 3850.303 4283.296 3843.24 4280.323 3837.294 4274.375 C 3831.346 4268.429 3828.373 4261.366 3828.373 4253.188 C 3828.373 4244.825 3831.346 4237.716 3837.294 4231.861 C 3843.24 4226.007 3850.303 4223.08 3858.481 4223.08 C 3866.936 4223.08 3874.184 4226.195 3880.226 4232.419 L 3888.589 4224.613 L 3888.589 4281.623 L 3880.226 4273.957 Z  M 3858.482 4230.747 C 3852.162 4230.747 3846.843 4232.907 3842.522 4237.228 C 3838.201 4241.549 3836.041 4246.87 3836.041 4253.188 C 3836.041 4259.508 3838.201 4264.827 3842.522 4269.148 C 3846.843 4273.469 3852.162 4275.629 3858.482 4275.629 C 3864.707 4275.629 3870.003 4273.447 3874.372 4269.078 C 3878.739 4264.711 3880.923 4259.414 3880.923 4253.188 C 3880.923 4246.963 3878.739 4241.666 3874.372 4237.298 C 3870.003 4232.931 3864.706 4230.747 3858.482 4230.747 Z " fill="rgb(0,0,0)"/><path d=" M 3485.869 4223.039 C 3471.581 4223.039 3459.615 4233.12 3456.538 4246.645 C 3456.035 4248.852 3455.77 4251.152 3455.77 4253.513 C 3455.77 4270.343 3469.246 4283.987 3485.869 4283.987 C 3492.547 4283.987 3498.718 4281.784 3503.715 4278.055 L 3496.86 4273.36 C 3493.536 4275.161 3489.762 4276.369 3485.679 4276.369 C 3472.98 4276.369 3462.682 4266.46 3462.682 4254.237 C 3462.682 4253.107 3462.77 4251.995 3462.942 4250.909 C 3464.606 4240.263 3474.153 4232.106 3485.678 4232.106 C 3497.604 4232.106 3507.412 4240.846 3508.556 4252.039 L 3515.936 4254.952 C 3515.958 4254.475 3515.971 4253.994 3515.971 4253.513 C 3515.972 4236.683 3502.492 4223.039 3485.869 4223.039 Z " fill="rgb(0,0,0)"/><path d=" M 3662.502 4223.039 C 3648.214 4223.039 3636.248 4233.12 3633.171 4246.645 C 3632.668 4248.852 3632.403 4251.152 3632.403 4253.513 C 3632.403 4270.343 3645.879 4283.987 3662.502 4283.987 C 3669.18 4283.987 3675.351 4281.784 3680.348 4278.055 L 3673.271 4273.406 C 3669.947 4275.207 3666.396 4276.369 3662.313 4276.369 C 3649.614 4276.369 3639.316 4266.46 3639.316 4254.237 C 3639.316 4253.107 3639.404 4251.995 3639.576 4250.909 C 3641.24 4240.263 3650.787 4232.106 3662.312 4232.106 C 3674.239 4232.106 3684.046 4240.846 3685.19 4252.039 L 3692.57 4254.952 C 3692.592 4254.475 3692.605 4253.994 3692.605 4253.513 C 3692.605 4236.682 3679.125 4223.039 3662.502 4223.039 Z " fill="rgb(0,0,0)"/><path d=" M 3406.12 4231.953 C 3403.943 4229.776 3401.51 4228.138 3398.826 4227.052 C 3398.517 4226.92 3398.203 4226.8 3397.886 4226.69 C 3395.846 4225.97 3393.66 4225.551 3391.338 4225.432 C 3390.879 4225.41 3390.415 4225.397 3389.947 4225.397 C 3384.719 4225.397 3380.105 4226.965 3376.105 4230.104 C 3375.694 4230.422 3375.288 4230.762 3374.891 4231.115 L 3374.891 4189.146 L 3367.221 4189.146 L 3367.221 4283.964 L 3374.891 4283.964 L 3374.891 4248.128 C 3374.891 4246.98 3375.001 4245.881 3375.227 4244.83 C 3375.271 4244.618 3375.32 4244.406 3375.373 4244.199 C 3376.013 4241.669 3377.32 4239.421 3379.281 4237.461 C 3382.208 4234.534 3385.767 4233.068 3389.949 4233.068 C 3392.064 4233.068 3394.02 4233.43 3395.813 4234.159 C 3397.57 4234.865 3399.169 4235.921 3400.617 4237.32 C 3401.557 4238.23 3402.343 4239.219 3402.979 4240.283 C 3404.335 4242.544 3405.01 4245.158 3405.01 4248.129 L 3405.01 4283.965 L 3412.675 4283.965 L 3412.675 4248.129 C 3412.672 4241.711 3410.487 4236.32 3406.12 4231.953 Z " fill="rgb(0,0,0)"/><path d=" M 3389.946 4225.396 C 3390.414 4225.396 3390.878 4225.409 3391.337 4225.431 L 3391.337 4230.738 L 3376.103 4230.738 L 3376.103 4230.102 C 3380.104 4226.964 3384.718 4225.396 3389.946 4225.396 Z " fill="rgb(0,0,0)"/></g></g></svg>