<svg height="512pt" viewBox="0 0 512 512" width="512pt" xmlns="http://www.w3.org/2000/svg"><path d="m477.511719 250.828125c-17.832031-8.917969-41.097657-13.828125-65.511719-13.828125s-47.679688 4.910156-65.511719 13.828125c-22.242187 11.117187-34.488281 27.515625-34.488281 46.171875 0 .59375.011719 1.183594.035156 1.773438-.023437.40625-.035156.8125-.035156 1.226562v24.710938c-17.101562-7.570313-38.128906-11.710938-60-11.710938-24.414062 0-47.679688 4.910156-65.511719 13.828125-22.242187 11.117187-34.488281 27.515625-34.488281 46.171875 0 .238281.011719.472656.015625.710938-.003906.097656-.015625.191406-.015625.289062v78c0 18.65625 12.246094 35.054688 34.488281 46.171875 17.832031 8.917969 41.097657 13.828125 65.511719 13.828125s47.679688-4.910156 65.511719-13.828125c5.441406-2.71875 10.277343-5.757813 14.488281-9.0625 4.210938 3.304687 9.046875 6.34375 14.488281 9.0625 17.832031 8.917969 41.097657 13.828125 65.511719 13.828125s47.679688-4.910156 65.511719-13.828125c22.242187-11.117187 34.488281-27.515625 34.488281-46.171875v-155c0-18.65625-12.246094-35.054688-34.488281-46.171875zm-177.886719 211.566406c-12.207031 6.105469-29.566406 9.605469-47.625 9.605469s-35.417969-3.5-47.625-9.605469c-10.222656-5.109375-12.375-9.703125-12.375-10.394531v-30.289062c16.992188 7.296874 38.023438 11.289062 60 11.289062.746094 0 1.492188-.003906 2.234375-.011719 11.046875-.132812 19.894531-9.1875 19.765625-20.234375-.128906-11.042968-9.210938-19.882812-20.234375-19.765625-.585937.007813-1.175781.011719-1.765625.011719-18.058594 0-35.414062-3.5-47.621094-9.605469-10.226562-5.109375-12.378906-9.703125-12.378906-10.394531s2.152344-5.285156 12.375-10.394531c12.207031-6.105469 29.566406-9.605469 47.625-9.605469 17.847656 0 35.117188 3.636719 47.378906 9.980469 9.628906 4.980469 12.621094 9.820312 12.621094 11.019531v78c0 .691406-2.152344 5.285156-12.375 10.394531zm172.375-10.394531c0 .691406-2.152344 5.285156-12.375 10.394531-12.207031 6.105469-29.566406 9.605469-47.625 9.605469s-35.417969-3.5-47.625-9.605469c-10.222656-5.109375-12.375-9.703125-12.375-10.394531v-30.289062c16.992188 7.296874 38.023438 11.289062 60 11.289062.753906 0 1.503906-.003906 2.25-.015625 11.042969-.136719 19.886719-9.203125 19.75-20.246094-.140625-11.046875-9.164062-19.898437-20.25-19.75-.582031.007813-1.164062.011719-1.75.011719-18.058594 0-35.417969-3.5-47.625-9.605469-10.222656-5.109375-12.375-9.703125-12.375-10.394531v-27.269531c16.988281 7.292969 38.03125 11.269531 60 11.269531.753906 0 1.503906-.003906 2.25-.015625 11.042969-.136719 19.886719-9.203125 19.75-20.246094-.136719-10.960937-9.066406-19.75-19.992188-19.75-.085937 0-.171874 0-.257812 0-.582031.007813-1.164062.011719-1.75.011719-18.058594 0-35.414062-3.5-47.621094-9.605469-10.226562-5.109375-12.378906-9.703125-12.378906-10.394531s2.152344-5.285156 12.375-10.394531c12.207031-6.105469 29.566406-9.605469 47.625-9.605469s35.417969 3.5 47.625 9.605469c10.222656 5.109375 12.375 9.703125 12.375 10.394531zm40-372v112c0 11.046875-8.953125 20-20 20s-20-8.953125-20-20v-112c0-22.054688-17.945312-40-40-40h-352c-22.054688 0-40 17.945312-40 40v206c0 22.054688 17.945312 40 40 40h15c11.046875 0 20 8.953125 20 20s-8.953125 20-20 20h-15c-44.113281 0-80-35.886719-80-80v-206c0-44.113281 35.886719-80 80-80h352c44.113281 0 80 35.886719 80 80zm-200.035156 105.183594c.023437-.765625.035156-1.535156.035156-2.304688 0-34.738281-25.121094-63-56-63s-56 28.261719-56 63c0 23.527344 11.554688 44.941406 30.152344 55.882813 9.519531 5.601562 12.695312 17.859375 7.097656 27.378906-3.726562 6.335937-10.402344 9.863281-17.257812 9.863281-3.445313 0-6.9375-.890625-10.121094-2.765625-30.761719-18.09375-49.871094-52.71875-49.871094-90.359375 0-56.792968 43.066406-103 96-103s96 46.207032 96 103c0 1.199219-.019531 2.394532-.058594 3.582032-.105468 3.332031-.363281 6.6875-.765625 9.972656-1.347656 10.964844-11.324219 18.761718-22.285156 17.417968-10.964844-1.347656-18.761719-11.324218-17.417969-22.289062.257813-2.09375.421875-4.242188.492188-6.378906zm-214.964844-28.183594c11.046875 0 20 8.953125 20 20s-8.953125 20-20 20-20-8.953125-20-20 8.953125-20 20-20zm320 40c-11.046875 0-20-8.953125-20-20s8.953125-20 20-20 20 8.953125 20 20-8.953125 20-20 20zm0 0"/></svg>