<svg height="512pt" viewBox="0 -76 512 512" width="512pt" xmlns="http://www.w3.org/2000/svg"><path d="m472 180c0 14.214844 10.085938 26.578125 23.980469 29.398438 9.320312 1.890624 16.019531 10.085937 16.019531 19.597656v51.003906c0 30.675781-17.898438 59.03125-45.59375 72.238281-9.972656 4.753907-21.910156.527344-26.664062-9.441406-4.753907-9.972656-.523438-21.90625 9.445312-26.660156 13.859375-6.609375 22.8125-20.792969 22.8125-36.136719v-36.75c-23.90625-11.386719-40-35.847656-40-63.25s16.09375-51.863281 40-63.25v-36.75c0-22.054688-17.945312-40-40-40h-62c0 11.046875-8.953125 20-20 20s-20-8.953125-20-20h-250c-22.054688 0-40 17.945312-40 40v36.75c23.90625 11.386719 40 35.847656 40 63.25s-16.09375 51.863281-40 63.25v36.75c0 22.054688 17.945312 40 40 40h250c0-11.046875 8.953125-20 20-20s20 8.953125 20 20v20c0 11.046875-8.953125 20-20 20h-270c-44.113281 0-80-35.886719-80-80v-51.003906c0-9.511719 6.699219-17.707032 16.019531-19.597656 13.894531-2.820313 23.980469-15.183594 23.980469-29.398438s-10.085938-26.578125-23.980469-29.398438c-9.320312-1.890624-16.019531-10.085937-16.019531-19.597656v-51.003906c0-44.113281 35.886719-80 80-80h352c44.113281 0 80 35.886719 80 80v51.003906c0 9.511719-6.699219 17.707032-16.019531 19.597656-13.894531 2.820313-23.980469 15.183594-23.980469 29.398438zm-122-90c-11.046875 0-20 8.953125-20 20s8.953125 20 20 20 20-8.953125 20-20-8.953125-20-20-20zm0 70c-11.046875 0-20 8.953125-20 20s8.953125 20 20 20 20-8.953125 20-20-8.953125-20-20-20zm0 70c-11.046875 0-20 8.953125-20 20s8.953125 20 20 20 20-8.953125 20-20-8.953125-20-20-20zm-178-110c0-16.570312-13.433594-30-30-30s-30 13.429688-30 30 13.433594 30 30 30 30-13.429688 30-30zm82 150c16.566406 0 30-13.429688 30-30s-13.433594-30-30-30-30 13.429688-30 30 13.433594 30 30 30zm-124.492188-4.382812c3.6875 2.949218 8.097657 4.382812 12.480469 4.382812 5.867188 0 11.679688-2.566406 15.628907-7.507812l112-140c6.898437-8.625 5.5-21.210938-3.125-28.109376-8.625-6.902343-21.210938-5.5-28.109376 3.125l-112 140c-6.902343 8.625-5.5 21.210938 3.125 28.109376zm0 0"/></svg>