<svg height="512pt" viewBox="0 0 512 512" width="512pt" xmlns="http://www.w3.org/2000/svg"><path d="m491.980469 391.984375h-43.101563c2.003906-5.976563 3.101563-12.359375 3.101563-19 0-11.046875-8.953125-20-20-20-11.042969 0-19.996094 8.953125-19.996094 20 0 8.859375-5.796875 16.378906-13.789063 19h-158.417968c-7.992188-2.621094-13.785156-10.140625-13.785156-19v-76.996094h74.996093v10c0 11.042969 8.953125 20 20 20 11.042969 0 19.996094-8.957031 19.996094-20v-10h110.996094c11.046875 0 20-8.953125 20-20v-79.996093c0-11.046876-8.953125-20-20-20h-27.4375c2.21875-6.257813 3.441406-12.988282 3.441406-20v-46.398438c9.125-1.851562 15.996094-9.921875 15.996094-19.597656v-69.996094c0-11.046875-8.953125-20-19.996094-20h-210.992187c-11.046876 0-20 8.953125-20 20v69.996094c0 9.675781 6.871093 17.746094 16 19.597656v46.398438c0 7.011718 1.21875 13.742187 3.4375 20h-26.4375c-11.046876 0-20 8.953124-20 20v79.996093c0 11.046875 8.953124 20 20 20v76.996094c0 6.640625 1.101562 13.023437 3.101562 19h-66.097656v-311.988281c0-44.109375-35.886719-79.996094-79.996094-79.996094h-23c-11.046875 0-20 8.953125-20 20 0 11.042969 8.953125 20 20 20h23c22.054688 0 39.996094 17.941406 39.996094 39.996094v315.09375c-1.636719.550781-3.261719 1.160156-4.863282 1.855468-14.699218 6.375-26.039062 18.089844-31.925781 32.992188-5.890625 14.902344-5.621093 31.207031.753907 45.90625 6.371093 14.699219 18.089843 26.039062 32.992187 31.925781 7.140625 2.824219 14.601563 4.230469 22.058594 4.230469 8.097656 0 16.191406-1.664062 23.847656-4.980469 14.699219-6.375 26.039063-18.09375 31.925781-32.996093 5.378906-13.605469 5.605469-28.382813.75-42.042969h76.613282c3.519531.648437 7.140624 1 10.84375 1h119.097656c-4.714844 14.058593-4.085938 29.15625 1.859375 42.863281 6.375 14.699219 18.089843 26.039062 32.992187 31.925781 7.140625 2.824219 14.601563 4.230469 22.058594 4.230469 8.097656 0 16.191406-1.664062 23.847656-4.980469 14.699219-6.375 26.039063-18.09375 31.925782-32.996093 5.378906-13.605469 5.605468-28.382813.75-42.042969h13.457031c11.046875 0 20-8.953125 20-19.996094 0-11.046875-8.957031-20-20-20zm-258.988281-351.984375h170.992187v30h-170.992187zm15.996093 115.992188v-45.996094h49v10c0 11.046875 8.953125 20 20 20 11.042969 0 19.996094-8.953125 19.996094-20v-10h50v45.996094c0 11.027343-8.972656 20-20 20h-98.996094c-11.027343 0-20-8.972657-20-20zm-42.996093 60h225.988281v39.996093h-225.988281zm-85.40625 243.332031c-1.960938 4.96875-5.742188 8.871093-10.636719 10.996093-4.902344 2.125-10.332031 2.214844-15.296875.25-4.96875-1.960937-8.871094-5.738281-10.996094-10.636718-2.121094-4.898438-2.210938-10.332032-.25-15.296875 1.960938-4.964844 5.742188-8.871094 10.640625-10.996094 2.550781-1.105469 5.246094-1.660156 7.945313-1.660156 2.484374 0 4.96875.472656 7.347656 1.410156 4.96875 1.960937 8.871094 5.742187 10.996094 10.640625 2.121093 4.894531 2.210937 10.328125.25 15.292969zm308.742187-25.933594c4.964844 1.960937 8.867187 5.742187 10.992187 10.640625 2.125 4.894531 2.214844 10.328125.25 15.292969-1.960937 4.96875-5.738281 8.871093-10.636718 10.996093-4.898438 2.125-10.332032 2.214844-15.296875.25-4.964844-1.960937-8.871094-5.738281-10.992188-10.636718-2.125-4.898438-2.214843-10.332032-.253906-15.296875 1.964844-4.964844 5.742187-8.871094 10.640625-10.996094 2.550781-1.105469 5.246094-1.660156 7.945312-1.660156 2.484376 0 4.972657.472656 7.351563 1.410156zm0 0"/></svg>