<?xml version="1.0" standalone="no"?><!-- Generator: Gravit.io --><svg xmlns="http://www.w3.org/2000/svg" xmlns:xlink="http://www.w3.org/1999/xlink" style="isolation:isolate" viewBox="688 346 512 512" width="512" height="512"><defs><clipPath id="_clipPath_LZRydryEIjBlHAjLyACj0cfTzAFVK2nA"><rect x="688" y="346" width="512" height="512"/></clipPath></defs><g clip-path="url(#_clipPath_LZRydryEIjBlHAjLyACj0cfTzAFVK2nA)"><g><linearGradient id="_lgradient_0" x1="0" y1="0.5" x2="1" y2="0.5" gradientTransform="matrix(512,0,0,512,688,346)" gradientUnits="userSpaceOnUse"><stop offset="0%" stop-opacity="1" style="stop-color:rgb(0,241,255)"/><stop offset="23.1%" stop-opacity="1" style="stop-color:rgb(0,216,255)"/><stop offset="51.38%" stop-opacity="1" style="stop-color:rgb(0,192,255)"/><stop offset="77.73%" stop-opacity="1" style="stop-color:rgb(0,178,255)"/><stop offset="100%" stop-opacity="1" style="stop-color:rgb(0,173,255)"/></linearGradient><path d=" M 1200 346 L 1200 858 L 688 858 L 688 346 L 1200 346 Z " fill="url(#_lgradient_0)"/><path d=" M 1114 628.664 C 1122.285 628.664 1129 621.949 1129 613.664 L 1129 519.301 C 1129 487.199 1102.883 461.082 1070.777 461.082 L 817.223 461.082 C 785.117 461.082 759 487.199 759 519.301 L 759 685.699 C 759 717.801 785.117 743.918 817.223 743.918 L 1070.781 743.918 C 1102.883 743.918 1129 717.801 1129 685.699 C 1129 677.414 1122.285 670.699 1114 670.699 C 1105.719 670.699 1099 677.414 1099 685.699 C 1099 701.262 1086.34 713.918 1070.781 713.918 L 817.223 713.918 C 801.66 713.918 789 701.258 789 685.699 L 789 523.422 L 913.258 600.688 C 922.738 606.582 933.367 609.531 944 609.531 C 954.633 609.531 965.262 606.582 974.742 600.688 L 1099 523.422 L 1099 613.664 C 1099 621.949 1105.715 628.664 1114 628.664 Z  M 958.902 575.211 C 949.711 580.926 938.289 580.926 929.098 575.211 L 801.508 495.871 C 806.004 492.848 811.406 491.082 817.219 491.082 L 1070.777 491.082 C 1076.59 491.082 1081.996 492.848 1086.492 495.871 L 958.902 575.211 Z " fill="rgb(255,255,255)"/></g></g></svg>