<svg height="512pt" viewBox="0 0 512 512.00011" width="512pt" xmlns="http://www.w3.org/2000/svg" xmlns:xlink="http://www.w3.org/1999/xlink"><linearGradient id="linear0" gradientUnits="userSpaceOnUse" x1="-.00067900053" x2="511.9984309992" y1="255.9998939994" y2="255.9998939994"><stop offset="0" stop-color="#00f2fe"/><stop offset=".0208" stop-color="#03effe"/><stop offset=".2931" stop-color="#24d2fe"/><stop offset=".5538" stop-color="#3cbdfe"/><stop offset=".7956" stop-color="#4ab0fe"/><stop offset="1" stop-color="#4facfe"/></linearGradient><path d="m292 342c0-16.570312 13.429688-30 30-30 16.566406 0 30 13.429688 30 30s-13.433594 30-30 30c-16.570312 0-30-13.429688-30-30zm101.382812-42.105469 113-117c7.675782-7.945312 7.457032-20.605469-.492187-28.28125-7.945313-7.671875-20.605469-7.453125-28.277344.492188l-113 117c-7.675781 7.945312-7.453125 20.605469.492188 28.28125 3.882812 3.75 8.890625 5.613281 13.890625 5.613281 5.234375 0 10.464844-2.042969 14.386718-6.105469zm-132.183593-18.808593 245-247c7.777343-7.84375 7.726562-20.503907-.117188-28.285157-7.839843-7.777343-20.503906-7.726562-28.28125.117188l-245 246.996093c-7.777343 7.84375-7.726562 20.507813.113281 28.285157 3.902344 3.871093 8.992188 5.800781 14.085938 5.800781 5.144531 0 10.289062-1.972656 14.199219-5.914062zm20.753906-178.261719 66-69c7.632813-7.980469 7.351563-20.640625-.628906-28.277344-7.984375-7.636719-20.644531-7.351563-28.277344.628906l-66 69c-7.636719 7.980469-7.355469 20.644531.628906 28.277344 3.875 3.707031 8.851563 5.546875 13.820313 5.546875 5.265625 0 10.527344-2.066406 14.457031-6.175781zm-32.953125 65.175781c0-33.082031-26.917969-60-60-60-33.085938 0-60 26.917969-60 60 0 33.085938 26.914062 60 60 60 33.082031 0 60-26.914062 60-60zm-40 0c0 11.027344-8.972656 20-20 20s-20-8.972656-20-20 8.972656-20 20-20 20 8.972656 20 20zm-47 336.4375c10.347656-3.863281 15.601562-15.386719 11.734375-25.734375s-15.390625-15.601563-25.734375-11.734375c-8.9375 3.339844-18.355469 5.03125-28 5.03125-44.113281 0-80-35.886719-80-80s35.886719-80 80-80c44.109375 0 80 35.886719 80 80 0 8.773438-1.40625 17.386719-4.179688 25.605469-3.53125 10.464843 2.085938 21.8125 12.554688 25.34375 10.460938 3.53125 21.8125-2.085938 25.34375-12.554688 4.167969-12.34375 6.28125-25.261719 6.28125-38.394531 0-66.167969-53.832031-120-120-120s-120 53.832031-120 120 53.832031 120 120 120c14.441406 0 28.570312-2.542969 42-7.5625zm0 0" fill="url(#linear0)"/></svg>