<?xml version="1.0" encoding="iso-8859-1"?>
<!-- Generator: Adobe Illustrator 19.0.0, SVG Export Plug-In . SVG Version: 6.00 Build 0)  -->
<svg version="1.1" id="Capa_1" xmlns="http://www.w3.org/2000/svg" xmlns:xlink="http://www.w3.org/1999/xlink" x="0px" y="0px"
	 viewBox="0 0 512 512" style="enable-background:new 0 0 512 512;" xml:space="preserve">
<g>
	<g>
		<g>
			<path d="M454.391,15.671C424.074,5.565,384.159,0,342,0s-82.074,5.565-112.39,15.671c-44.346,14.782-56.055,35.253-57.454,50.94
				C172.062,67.396,172,68.19,172,69v81c0,1.944,0.151,3.984,0.495,6.093C76.883,159.014,0,237.693,0,334
				c0,98.149,79.851,178,178,178c29.047,0,57.879-7.159,83.381-20.702c9.755-5.181,13.464-17.289,8.283-27.044
				c-5.18-9.756-17.29-13.463-27.044-8.283C222.875,466.457,200.529,472,178,472c-76.093,0-138-61.907-138-138s61.907-138,138-138
				s138,61.907,138,138c0,19.462-3.964,38.266-11.782,55.891c-4.478,10.098,0.076,21.913,10.173,26.392
				c10.1,4.479,21.913-0.076,26.392-10.173c3.783-8.53,6.868-17.27,9.246-26.185c24.434-0.418,48.376-2.734,69.693-6.772
				c10.853-2.056,17.984-12.52,15.928-23.373c-2.056-10.853-12.525-17.985-23.373-15.928c-17.24,3.266-36.502,5.281-56.379,5.924
				c0.061-1.921,0.102-3.845,0.102-5.776c0-11.669-1.141-23.076-3.295-34.124c23.505-0.537,46.479-2.832,67.018-6.723
				c10.853-2.056,17.984-12.52,15.928-23.373c-2.056-10.853-12.525-17.984-23.373-15.928C391.043,257.874,366.741,260,342,260
				c-0.711,0-1.425-0.013-2.137-0.016c-6.802-14.816-15.581-28.539-25.995-40.839C323.078,219.701,332.476,220,342,220
				c27.198,0,54.074-2.368,77.723-6.847c10.853-2.056,17.984-12.52,15.928-23.373c-2.056-10.853-12.525-17.984-23.373-15.928
				C391.043,177.874,366.741,180,342,180c-34.843,0-68.158-4.175-93.806-11.755c-25.891-7.653-34.824-16.05-36.194-18.763v-32.067
				c5.21,2.406,11.039,4.724,17.609,6.914C259.926,134.435,299.841,140,342,140c26.775,0,53.283-2.299,76.659-6.648
				c10.859-2.021,18.025-12.462,16.004-23.321c-2.021-10.859-12.458-18.025-23.321-16.004C390.34,97.935,366.362,100,342,100
				c-34.843,0-68.158-4.175-93.806-11.755C223.779,81.028,214.443,73.149,212.31,70c2.133-3.149,11.468-11.028,35.884-18.245
				C273.842,44.175,307.157,40,342,40c34.843,0,68.158,4.175,93.806,11.755c25.897,7.654,34.828,16.054,36.194,18.764v319.972
				c-2.775,5.829-28.259,22.632-89.932,28.616c-10.994,1.067-19.041,10.844-17.975,21.838c1.004,10.338,9.707,18.07,19.883,18.07
				c0.646,0,1.3-0.031,1.956-0.095C464.872,451.261,512,425.87,512,391V70C512,53.976,502.005,31.542,454.391,15.671z"/>
			<path d="M184,412c11.046,0,20-8.954,20-20V277c0-7.632-4.344-14.6-11.197-17.958c-6.854-3.36-15.022-2.525-21.054,2.15l-40,31
				c-8.73,6.766-10.323,19.329-3.557,28.06c6.766,8.731,19.328,10.324,28.06,3.557l7.749-6.005V392C164,403.046,172.954,412,184,412
				z"/>
		</g>
	</g>
</g>
<g>
</g>
<g>
</g>
<g>
</g>
<g>
</g>
<g>
</g>
<g>
</g>
<g>
</g>
<g>
</g>
<g>
</g>
<g>
</g>
<g>
</g>
<g>
</g>
<g>
</g>
<g>
</g>
<g>
</g>
</svg>
