<?xml version="1.0" encoding="iso-8859-1"?>
<!-- Generator: Adobe Illustrator 19.0.0, SVG Export Plug-In . SVG Version: 6.00 Build 0)  -->
<svg version="1.1" id="Capa_1" xmlns="http://www.w3.org/2000/svg" xmlns:xlink="http://www.w3.org/1999/xlink" x="0px" y="0px"
	 viewBox="0 0 512 512" style="enable-background:new 0 0 512 512;" xml:space="preserve">
<g>
	<g>
		<g>
			<circle cx="96.96" cy="200.523" r="19.992"/>
			<path d="M255.895,133.43c28.641,0,53.729,22.64,59.654,53.832c2.06,10.848,12.521,17.972,23.371,15.909
				c10.848-2.06,17.971-12.524,15.909-23.371c-9.504-50.036-51.113-86.353-98.935-86.353c-55.668,0-100.958,48.429-100.958,107.955
				c0,24.568,7.92,48.612,22.302,67.702c14.443,19.173,34.738,32.596,57.145,37.795c1.52,0.353,3.04,0.522,4.536,0.522
				c9.09,0,17.314-6.242,19.457-15.478c2.496-10.756-4.2-21.497-14.956-23.993c-28.103-6.52-48.501-34.509-48.501-66.549
				C194.92,163.922,222.273,133.43,255.895,133.43z"/>
			<path d="M255.895,349.462H79.967c-22.047,0-39.984-17.937-39.984-39.984V93.567c0-22.047,17.937-39.984,39.984-39.984h351.855
				c22.047,0,39.984,17.937,39.984,39.984v88.963c0,11.041,8.95,19.992,19.992,19.992c11.041,0,19.992-8.95,19.992-19.992V93.567
				c0-44.094-35.873-79.967-79.967-79.967H79.967C35.873,13.6,0,49.473,0,93.567v215.911c0,44.094,35.873,79.967,79.967,79.967
				h175.927c11.041,0,19.992-8.95,19.992-19.992C275.886,358.413,266.936,349.462,255.895,349.462z"/>
			<path d="M494.598,245.358c-8.913-6.516-21.421-4.571-27.937,4.343L308.727,465.778c-6.515,8.913-4.571,21.421,4.343,27.937
				c3.559,2.601,7.687,3.853,11.781,3.853c6.161,0,12.242-2.841,16.156-8.197l157.935-216.076
				C505.457,264.382,503.513,251.874,494.598,245.358z"/>
			<path d="M462.021,398.441c-27.559,0-49.979,22.421-49.979,49.979s22.421,49.979,49.979,49.979
				c27.559,0,49.979-22.421,49.979-49.979S489.579,398.441,462.021,398.441z M462.021,458.417c-5.512,0-9.996-4.484-9.996-9.996
				s4.484-9.996,9.996-9.996c5.512,0,9.996,4.484,9.996,9.996C472.016,453.933,467.532,458.417,462.021,458.417z"/>
			<path d="M344.858,338.466c27.559,0,49.979-22.421,49.979-49.979s-22.421-49.979-49.979-49.979s-49.979,22.421-49.979,49.979
				C294.878,316.046,317.299,338.466,344.858,338.466z M344.858,278.491c5.512,0,9.996,4.484,9.996,9.996
				c0,5.512-4.484,9.996-9.996,9.996c-5.512,0-9.996-4.484-9.996-9.996C334.862,282.975,339.346,278.491,344.858,278.491z"/>
		</g>
	</g>
</g>
<g>
</g>
<g>
</g>
<g>
</g>
<g>
</g>
<g>
</g>
<g>
</g>
<g>
</g>
<g>
</g>
<g>
</g>
<g>
</g>
<g>
</g>
<g>
</g>
<g>
</g>
<g>
</g>
<g>
</g>
</svg>
