<svg height="511pt" viewBox="-46 1 511 511.999" width="511pt" xmlns="http://www.w3.org/2000/svg"><path d="m178.480469 326.015625c0 11.046875-8.953125 20-20 20-11.042969 0-19.996094-8.953125-19.996094-20 0-11.042969 8.953125-19.996094 19.996094-19.996094 11.046875 0 20 8.953125 20 19.996094zm0 0"/><path d="m417.945312 430.382812c-4.210937-10.210937-15.898437-15.078124-26.109374-10.867187l-114.59375 47.238281-43.980469-78.460937 24.609375-43.414063c2.691406-4.753906 3.324218-10.402344 1.75-15.632812l-28.785156-95.535156c.109374-.304688.234374-.601563.328124-.914063l56.195313-186.511719 46.179687 17.46875c-9.433593 52.535156-7.675781 98.148438 5.261719 135.777344 11.269531 32.789062 28.5625 51.734375 40.660157 61.675781v77.917969l-50.253907 19.5625c-10.289062 4.007812-15.386719 15.601562-11.378906 25.890625 3.078125 7.910156 10.636719 12.75 18.640625 12.75 2.414062 0 4.867188-.441406 7.25-1.367187l60.992188-23.746094c2.238281-.871094 4.207031-2.113282 5.914062-3.609375 5.328125-3.59375 8.832031-9.679688 8.832031-16.589844v-100.988281c0-6.945313-3.605469-13.394532-9.519531-17.03125-5.058594-3.113282-22.40625-15.734375-33.3125-47.464844-11.894531-34.597656-12.105469-78.742188-.625-131.210938 2.117188-9.6875-3.183594-19.46875-12.460938-22.976562l-82.070312-31.050781c-.132812-.050781-.269531-.082031-.40625-.128907-.410156-.144531-.824219-.28125-1.246094-.398437-.246094-.070313-.496094-.132813-.746094-.191406-.386718-.09375-.78125-.179688-1.179687-.25-.292969-.050781-.585937-.09375-.878906-.132813-.355469-.046875-.714844-.085937-1.074219-.113281-.339844-.0273438-.675781-.0429688-1.015625-.0507812-.175781-.0039063-.351563-.0273438-.527344-.0273438h-128.835937c-.183594 0-.363282.0234375-.546875.0273438-.328125.0078124-.65625.0234374-.980469.0507812-.371094.027344-.738281.066406-1.105469.113281-.285156.039063-.570312.082032-.851562.132813-.40625.070312-.804688.15625-1.203125.25-.246094.058593-.488282.121093-.730469.1875-.425781.121093-.839844.257812-1.253906.402343-.132813.046876-.269531.078126-.402344.128907l-82.070313 31.046875c-9.277343 3.511718-14.578124 13.289062-12.457031 22.976562 11.476563 52.46875 11.265625 96.617188-.625 131.210938-10.90625 31.730468-28.257812 44.351562-33.316406 47.464844-5.914063 3.640624-9.515625 10.085937-9.515625 17.03125v186.980468c0 8.101563 4.886719 15.402344 12.375 18.488282l130.988281 53.992187c2.484375 1.027344 5.066407 1.515625 7.613281 1.515625 7.011719 0 13.757813-3.707031 17.402344-10.140625l41.328125-72.898437 40.820313 72.816406c3.632812 6.484375 10.40625 10.222656 17.453125 10.222656 2.546875 0 5.128906-.488281 7.613281-1.515625l130.984375-53.992187c10.210937-4.207032 15.074219-15.898438 10.867187-26.109376zm-207.96875-265.90625-37.503906-124.480468h75.007813zm-67.1875 302.308594-102.292968-42.167968v-41.738282l37.738281 14.691406c2.382813.925782 4.835937 1.367188 7.25 1.367188 8.003906 0 15.5625-4.839844 18.640625-12.75 4.007812-10.289062-1.089844-21.882812-11.378906-25.890625l-52.25-20.339844v-78.753906c12.09375-9.9375 29.386718-28.882813 40.65625-61.671875 12.9375-37.632812 14.695312-83.242188 5.261718-135.777344l46.179688-17.472656 86.265625 286.3125zm0 0"/></svg>