<?xml version="1.0" encoding="iso-8859-1"?>
<!-- Generator: Adobe Illustrator 19.0.0, SVG Export Plug-In . SVG Version: 6.00 Build 0)  -->
<svg version="1.1" id="Capa_1" xmlns="http://www.w3.org/2000/svg" xmlns:xlink="http://www.w3.org/1999/xlink" x="0px" y="0px"
	 viewBox="0 0 512.001 512.001" style="enable-background:new 0 0 512.001 512.001;" xml:space="preserve">
<linearGradient id="SVGID_1_" gradientUnits="userSpaceOnUse" x1="0" y1="258.0003" x2="512.0007" y2="258.0003" gradientTransform="matrix(1 0 0 -1 0 514.0007)">
	<stop  offset="0" style="stop-color:#00F2FE"/>
	<stop  offset="0.021" style="stop-color:#03EFFE"/>
	<stop  offset="0.293" style="stop-color:#24D2FE"/>
	<stop  offset="0.554" style="stop-color:#3CBDFE"/>
	<stop  offset="0.796" style="stop-color:#4AB0FE"/>
	<stop  offset="1" style="stop-color:#4FACFE"/>
</linearGradient>
<path style="fill:url(#SVGID_1_);" d="M20.006,512c-5.098,0-10.116-1.948-13.926-5.641c-5.845-5.666-7.672-14.309-4.621-21.856
	l45.412-112.331C16.163,332.253,0.001,285.425,0.001,236c0-63.375,26.856-122.857,75.62-167.488C123.892,24.331,187.953,0,256.001,0
	s132.11,24.331,180.381,68.512c48.764,44.631,75.619,104.113,75.619,167.488c0,45.449-14.04,89.578-40.603,127.615
	c-6.323,9.056-18.794,11.272-27.848,4.947c-9.057-6.324-11.271-18.792-4.947-27.848c21.85-31.288,33.398-67.498,33.398-104.714
	c0-108.075-96.897-196-216-196s-216,87.925-216,196c0,43.783,15.577,85.2,45.047,119.773c4.835,5.671,6.114,13.561,3.321,20.47
	l-31.366,77.589l91.345-40.266c5.064-2.232,10.826-2.267,15.916-0.095C193.083,425.766,223.948,432,256.001,432
	c36.893,0,73.299-8.587,105.285-24.832c9.849-5.001,21.887-1.073,26.889,8.775c5.002,9.849,1.073,21.887-8.775,26.889
	C341.829,461.914,299.158,472,256.001,472c-34.479,0-67.835-6.191-99.276-18.413L28.069,510.301
	C25.475,511.444,22.729,512,20.006,512z"/>
<g>
</g>
<g>
</g>
<g>
</g>
<g>
</g>
<g>
</g>
<g>
</g>
<g>
</g>
<g>
</g>
<g>
</g>
<g>
</g>
<g>
</g>
<g>
</g>
<g>
</g>
<g>
</g>
<g>
</g>
</svg>
