<svg height="512pt" viewBox="-47 0 512 512" width="512pt" xmlns="http://www.w3.org/2000/svg" xmlns:xlink="http://www.w3.org/1999/xlink"><linearGradient id="linear0" gradientUnits="userSpaceOnUse" x1=".000220959" x2="418.9615254025" y1="256.0000171755" y2="256.0000171755"><stop offset="0" stop-color="#00f2fe"/><stop offset=".0208" stop-color="#03effe"/><stop offset=".2931" stop-color="#24d2fe"/><stop offset=".5538" stop-color="#3cbdfe"/><stop offset=".7956" stop-color="#4ab0fe"/><stop offset="1" stop-color="#4facfe"/></linearGradient><path d="m177.980469 326.015625c0 11.046875-8.953125 20-19.996094 20-11.046875 0-20-8.953125-20-20 0-11.042969 8.953125-19.996094 20-19.996094 11.042969 0 19.996094 8.953125 19.996094 19.996094zm228.597656 130.476563-130.984375 53.996093c-2.484375 1.023438-5.066406 1.511719-7.613281 1.511719-7.046875 0-13.816407-3.738281-17.453125-10.222656l-40.820313-72.816406-41.324219 72.898437c-3.648437 6.4375-10.390624 10.140625-17.40625 10.140625-2.546874 0-5.128906-.488281-7.613281-1.511719l-130.988281-53.996093c-7.488281-3.085938-12.375-10.386719-12.375-18.488282v-186.980468c0-6.941407 3.601562-13.390626 9.515625-17.03125 5.058594-3.109376 22.410156-15.730469 33.316406-47.460938 11.890625-34.597656 12.101563-78.742188.625-131.210938-2.121093-9.691406 3.183594-19.46875 12.460938-22.980468l82.066406-31.046875c.132813-.050781.269531-.082031.402344-.128907.414062-.144531.828125-.28125 1.253906-.398437.242187-.070313.484375-.128906.730469-.191406.398437-.09375.796875-.179688 1.203125-.25.28125-.050781.566406-.09375.851562-.128907.367188-.050781.734375-.089843 1.105469-.117187.328125-.0234375.652344-.0429688.980469-.0507812.183593-.0039063.363281-.0273438.550781-.0273438h128.832031c.179688 0 .351563.0234375.53125.0273438.335938.0078124.675781.0234374 1.011719.0507812.363281.027344.71875.066406 1.074219.113281.296875.039063.589843.082032.882812.132813.398438.070312.789063.15625 1.179688.25.25.058593.5.121093.746093.191406.421876.117187.835938.253906 1.246094.398437.132813.046876.269532.078126.40625.128907l82.066406 31.046875c9.277344 3.511718 14.582032 13.289062 12.460938 22.980468-11.476562 52.46875-11.265625 96.613282.625 131.210938 10.90625 31.726562 28.257812 44.347656 33.3125 47.460938 5.914062 3.640624 9.519531 10.089843 9.519531 17.03125v100.992187c0 6.90625-3.503906 12.996094-8.832031 16.589844-1.703125 1.492187-3.675781 2.738281-5.910156 3.609375l-60.996094 23.746094c-2.382812.925781-4.835938 1.367187-7.25 1.367187-8.003906 0-15.558594-4.839844-18.640625-12.75-4.003906-10.292969 1.089844-21.882813 11.382813-25.890625l50.25-19.5625v-77.917969c-12.097657-9.941406-29.390626-28.886719-40.660157-61.675781-12.9375-37.632812-14.695312-83.242188-5.261719-135.777344l-46.179687-17.472656-56.195313 186.515625c-.09375.3125-.21875.609375-.324218.914063l28.78125 95.535156c1.578125 5.230468.945312 10.878906-1.75 15.632812l-24.609375 43.414063 43.984375 78.460937 114.589844-47.238281c10.210937-4.210937 21.902343.65625 26.109374 10.867187 4.210938 10.210938-.65625 21.902344-10.867187 26.109376zm-159.59375-416.496094h-75.011719l37.503906 124.480468zm-28.625 292.597656-86.261719-286.308594-46.183594 17.46875c9.433594 52.535156 7.675782 98.148438-5.257812 135.777344-11.273438 32.789062-28.5625 51.734375-40.660156 61.675781v78.75l52.25 20.34375c10.292968 4.007813 15.386718 15.597657 11.378906 25.890625-3.078125 7.90625-10.636719 12.746094-18.640625 12.746094-2.410156 0-4.863281-.4375-7.25-1.367188l-37.738281-14.691406v41.742188l102.292968 42.164062zm0 0" fill="url(#linear0)"/></svg>